<svg id="visual" viewBox="0 0 900 600" width="900" height="600" xmlns="http://www.w3.org/2000/svg" xmlns:xlink="http://www.w3.org/1999/xlink" version="1.1"><g stroke-width="1" stroke-linejoin="bevel"><path d="M418 327L418 410L461 370Z" fill="#1a1a1a" stroke="#1a1a1a"></path><path d="M461 370L511 310L418 327Z" fill="#181818" stroke="#181818"></path><path d="M314 415L394 476L418 410Z" fill="#171717" stroke="#171717"></path><path d="M418 410L529 485L461 370Z" fill="#191919" stroke="#191919"></path><path d="M461 370L582 435L511 310Z" fill="#1a1a1a" stroke="#1a1a1a"></path><path d="M418 327L314 415L418 410Z" fill="#181818" stroke="#181818"></path><path d="M379 214L323 280L418 327Z" fill="#191919" stroke="#191919"></path><path d="M418 327L323 280L314 415Z" fill="#171717" stroke="#171717"></path><path d="M314 415L313 477L394 476Z" fill="#181818" stroke="#181818"></path><path d="M511 310L379 214L418 327Z" fill="#1a1a1a" stroke="#1a1a1a"></path><path d="M487 600L529 485L394 476Z" fill="#181818" stroke="#181818"></path><path d="M394 476L529 485L418 410Z" fill="#181818" stroke="#181818"></path><path d="M529 485L582 435L461 370Z" fill="#181818" stroke="#181818"></path><path d="M582 435L610 308L511 310Z" fill="#191919" stroke="#191919"></path><path d="M511 310L476 170L379 214Z" fill="#1a1a1a" stroke="#1a1a1a"></path><path d="M379 214L300 207L323 280Z" fill="#181818" stroke="#181818"></path><path d="M323 280L173 409L314 415Z" fill="#181818" stroke="#181818"></path><path d="M314 415L195 486L313 477Z" fill="#191919" stroke="#191919"></path><path d="M616 192L476 170L511 310Z" fill="#171717" stroke="#171717"></path><path d="M379 214L364 93L300 207Z" fill="#171717" stroke="#171717"></path><path d="M313 477L405 600L394 476Z" fill="#191919" stroke="#191919"></path><path d="M529 485L632 480L582 435Z" fill="#171717" stroke="#171717"></path><path d="M582 435L718 422L610 308Z" fill="#1a1a1a" stroke="#1a1a1a"></path><path d="M635 600L632 480L529 485Z" fill="#191919" stroke="#191919"></path><path d="M405 600L487 600L394 476Z" fill="#1a1a1a" stroke="#1a1a1a"></path><path d="M160 286L173 409L323 280Z" fill="#191919" stroke="#191919"></path><path d="M313 477L262 600L405 600Z" fill="#171717" stroke="#171717"></path><path d="M173 409L195 486L314 415Z" fill="#181818" stroke="#181818"></path><path d="M720 231L616 192L610 308Z" fill="#191919" stroke="#191919"></path><path d="M610 308L616 192L511 310Z" fill="#181818" stroke="#181818"></path><path d="M699 600L664 470L632 480Z" fill="#1a1a1a" stroke="#1a1a1a"></path><path d="M632 480L664 470L582 435Z" fill="#171717" stroke="#171717"></path><path d="M195 213L160 286L323 280Z" fill="#171717" stroke="#171717"></path><path d="M300 207L195 213L323 280Z" fill="#181818" stroke="#181818"></path><path d="M267 127L195 213L300 207Z" fill="#181818" stroke="#181818"></path><path d="M195 486L262 600L313 477Z" fill="#1a1a1a" stroke="#1a1a1a"></path><path d="M504 89L364 93L476 170Z" fill="#1a1a1a" stroke="#1a1a1a"></path><path d="M476 170L364 93L379 214Z" fill="#181818" stroke="#181818"></path><path d="M364 93L267 127L300 207Z" fill="#171717" stroke="#171717"></path><path d="M616 192L504 89L476 170Z" fill="#191919" stroke="#191919"></path><path d="M664 470L718 422L582 435Z" fill="#191919" stroke="#191919"></path><path d="M718 422L726 300L610 308Z" fill="#1a1a1a" stroke="#1a1a1a"></path><path d="M487 600L635 600L529 485Z" fill="#181818" stroke="#181818"></path><path d="M664 470L795 508L718 422Z" fill="#1a1a1a" stroke="#1a1a1a"></path><path d="M173 409L117 470L195 486Z" fill="#171717" stroke="#171717"></path><path d="M195 486L192 600L262 600Z" fill="#191919" stroke="#191919"></path><path d="M78 390L117 470L173 409Z" fill="#1a1a1a" stroke="#1a1a1a"></path><path d="M720 231L621 115L616 192Z" fill="#181818" stroke="#181818"></path><path d="M616 192L621 115L504 89Z" fill="#171717" stroke="#171717"></path><path d="M113 600L192 600L195 486Z" fill="#1a1a1a" stroke="#1a1a1a"></path><path d="M726 300L720 231L610 308Z" fill="#1a1a1a" stroke="#1a1a1a"></path><path d="M122 212L101 278L160 286Z" fill="#1a1a1a" stroke="#1a1a1a"></path><path d="M160 286L78 390L173 409Z" fill="#181818" stroke="#181818"></path><path d="M122 212L160 286L195 213Z" fill="#1a1a1a" stroke="#1a1a1a"></path><path d="M181 116L122 212L195 213Z" fill="#171717" stroke="#171717"></path><path d="M101 278L78 390L160 286Z" fill="#181818" stroke="#181818"></path><path d="M200 0L181 116L267 127Z" fill="#181818" stroke="#181818"></path><path d="M267 127L181 116L195 213Z" fill="#181818" stroke="#181818"></path><path d="M635 600L699 600L632 480Z" fill="#171717" stroke="#171717"></path><path d="M463 0L364 93L504 89Z" fill="#181818" stroke="#181818"></path><path d="M463 0L383 0L364 93Z" fill="#191919" stroke="#191919"></path><path d="M364 93L283 0L267 127Z" fill="#181818" stroke="#181818"></path><path d="M573 0L463 0L504 89Z" fill="#181818" stroke="#181818"></path><path d="M718 422L788 306L726 300Z" fill="#181818" stroke="#181818"></path><path d="M726 300L788 306L720 231Z" fill="#181818" stroke="#181818"></path><path d="M720 231L738 84L621 115Z" fill="#171717" stroke="#171717"></path><path d="M823 399L788 306L718 422Z" fill="#181818" stroke="#181818"></path><path d="M0 480L113 600L117 470Z" fill="#1a1a1a" stroke="#1a1a1a"></path><path d="M117 470L113 600L195 486Z" fill="#181818" stroke="#181818"></path><path d="M788 306L773 212L720 231Z" fill="#171717" stroke="#171717"></path><path d="M621 115L573 0L504 89Z" fill="#191919" stroke="#191919"></path><path d="M383 0L283 0L364 93Z" fill="#171717" stroke="#171717"></path><path d="M200 0L127 104L181 116Z" fill="#1a1a1a" stroke="#1a1a1a"></path><path d="M181 116L127 104L122 212Z" fill="#181818" stroke="#181818"></path><path d="M0 273L0 373L101 278Z" fill="#171717" stroke="#171717"></path><path d="M101 278L0 373L78 390Z" fill="#191919" stroke="#191919"></path><path d="M726 0L573 0L621 115Z" fill="#181818" stroke="#181818"></path><path d="M699 600L795 508L664 470Z" fill="#181818" stroke="#181818"></path><path d="M795 508L823 399L718 422Z" fill="#1a1a1a" stroke="#1a1a1a"></path><path d="M900 162L786 109L773 212Z" fill="#191919" stroke="#191919"></path><path d="M0 273L101 278L122 212Z" fill="#191919" stroke="#191919"></path><path d="M78 390L0 480L117 470Z" fill="#181818" stroke="#181818"></path><path d="M773 212L738 84L720 231Z" fill="#1a1a1a" stroke="#1a1a1a"></path><path d="M283 0L200 0L267 127Z" fill="#181818" stroke="#181818"></path><path d="M0 177L122 212L127 104Z" fill="#191919" stroke="#191919"></path><path d="M0 177L0 273L122 212Z" fill="#171717" stroke="#171717"></path><path d="M0 373L0 480L78 390Z" fill="#181818" stroke="#181818"></path><path d="M900 269L773 212L788 306Z" fill="#181818" stroke="#181818"></path><path d="M773 212L786 109L738 84Z" fill="#181818" stroke="#181818"></path><path d="M699 600L815 600L795 508Z" fill="#191919" stroke="#191919"></path><path d="M900 480L900 438L823 399Z" fill="#171717" stroke="#171717"></path><path d="M0 94L0 177L127 104Z" fill="#181818" stroke="#181818"></path><path d="M200 0L121 0L127 104Z" fill="#181818" stroke="#181818"></path><path d="M0 480L0 600L113 600Z" fill="#181818" stroke="#181818"></path><path d="M814 0L726 0L738 84Z" fill="#171717" stroke="#171717"></path><path d="M738 84L726 0L621 115Z" fill="#1a1a1a" stroke="#1a1a1a"></path><path d="M900 480L823 399L795 508Z" fill="#1a1a1a" stroke="#1a1a1a"></path><path d="M823 399L900 269L788 306Z" fill="#171717" stroke="#171717"></path><path d="M900 438L900 269L823 399Z" fill="#181818" stroke="#181818"></path><path d="M786 109L814 0L738 84Z" fill="#171717" stroke="#171717"></path><path d="M900 600L900 480L795 508Z" fill="#171717" stroke="#171717"></path><path d="M121 0L0 94L127 104Z" fill="#191919" stroke="#191919"></path><path d="M900 269L900 162L773 212Z" fill="#171717" stroke="#171717"></path><path d="M900 162L900 138L786 109Z" fill="#1a1a1a" stroke="#1a1a1a"></path><path d="M815 600L900 600L795 508Z" fill="#191919" stroke="#191919"></path><path d="M900 138L814 0L786 109Z" fill="#171717" stroke="#171717"></path><path d="M121 0L0 0L0 94Z" fill="#1a1a1a" stroke="#1a1a1a"></path><path d="M900 138L900 0L814 0Z" fill="#1a1a1a" stroke="#1a1a1a"></path></g></svg>